<svg width="16" height="18" viewBox="0 0 16 18" fill="none" xmlns="http://www.w3.org/2000/svg">
<path fill-rule="evenodd" clip-rule="evenodd" d="M5.29158 15.0417C5.29158 16.5374 6.50415 17.75 7.99992 17.75C9.49569 17.75 10.7083 16.5374 10.7083 15.0417C10.7083 13.761 9.81938 12.688 8.62492 12.4058V9.41667H10.7083C12.4341 9.41667 13.8333 8.01756 13.8333 6.29167V5.5942C15.0277 5.31204 15.9166 4.23899 15.9166 2.95833C15.9166 1.46256 14.704 0.25 13.2083 0.25C11.7125 0.25 10.4999 1.46256 10.4999 2.95833C10.4999 4.23899 11.3888 5.31204 12.5833 5.5942V6.29167C12.5833 7.3272 11.7438 8.16667 10.7083 8.16667H5.29158C4.25605 8.16667 3.41659 7.3272 3.41659 6.29167V5.5942C4.61104 5.31204 5.49992 4.23899 5.49992 2.95833C5.49992 1.46256 4.28736 0.25 2.79159 0.25C1.29581 0.25 0.083252 1.46256 0.083252 2.95833C0.083252 4.23899 0.972127 5.31204 2.16659 5.5942V6.29167C2.16659 8.01756 3.5657 9.41667 5.29158 9.41667H7.37492V12.4058C6.18046 12.688 5.29158 13.761 5.29158 15.0417ZM7.99992 16.5C7.1945 16.5 6.54158 15.8471 6.54158 15.0417C6.54158 14.2363 7.1945 13.5833 7.99992 13.5833C8.80533 13.5833 9.45825 14.2363 9.45825 15.0417C9.45825 15.8471 8.80533 16.5 7.99992 16.5ZM2.79159 4.41667C1.98617 4.41667 1.33325 3.76375 1.33325 2.95833C1.33325 2.15292 1.98617 1.5 2.79159 1.5C3.597 1.5 4.24992 2.15292 4.24992 2.95833C4.24992 3.76375 3.597 4.41667 2.79159 4.41667ZM11.7499 2.95833C11.7499 3.76375 12.4028 4.41667 13.2083 4.41667C14.0137 4.41667 14.6666 3.76375 14.6666 2.95833C14.6666 2.15292 14.0137 1.5 13.2083 1.5C12.4028 1.5 11.7499 2.15292 11.7499 2.95833Z" fill="white"/>
</svg>
