<svg width="20" height="19" viewBox="0 0 20 19" fill="none" xmlns="http://www.w3.org/2000/svg">
<path fill-rule="evenodd" clip-rule="evenodd" d="M10 0.208252C10.2379 0.208252 10.4552 0.343314 10.5605 0.556648L13.1091 5.72067L18.8079 6.54876C19.0433 6.58297 19.2389 6.74787 19.3124 6.97413C19.386 7.20038 19.3247 7.44876 19.1543 7.61482L15.0306 11.6344L16.0041 17.3103C16.0443 17.5447 15.9479 17.7817 15.7554 17.9215C15.5629 18.0614 15.3078 18.0798 15.0972 17.9691L10 15.2894L4.90283 17.9691C4.69225 18.0798 4.43709 18.0614 4.24462 17.9215C4.05216 17.7817 3.95577 17.5447 3.99598 17.3103L4.96946 11.6344L0.845743 7.61482C0.675385 7.44876 0.614075 7.20038 0.68759 6.97413C0.761106 6.74787 0.956698 6.58297 1.19213 6.54876L6.89096 5.72067L9.43956 0.556648C9.54485 0.343314 9.76212 0.208252 10 0.208252ZM10 2.24547L7.86646 6.56853C7.77542 6.75299 7.59945 6.88085 7.39588 6.91043L2.6251 7.60366L6.07727 10.9687C6.22457 11.1123 6.29179 11.3192 6.25702 11.5219L5.44207 16.2734L9.70918 14.03C9.89126 13.9343 10.1088 13.9343 10.2909 14.03L14.558 16.2734L13.743 11.5219C13.7082 11.3192 13.7755 11.1123 13.9228 10.9687L17.3749 7.60366L12.6042 6.91043C12.4006 6.88085 12.2246 6.75299 12.1336 6.56853L10 2.24547Z" fill="white"/>
</svg>
